<?xml version="1.0" standalone="no"?>
<!DOCTYPE svg PUBLIC "-//W3C//DTD SVG 20010904//EN"
 "http://www.w3.org/TR/2001/REC-SVG-20010904/DTD/svg10.dtd">
<svg version="1.0" xmlns="http://www.w3.org/2000/svg"
 width="500.000000pt" height="500.000000pt" viewBox="0 0 500.000000 500.000000"
 preserveAspectRatio="xMidYMid meet">
<metadata>
Created by potrace 1.14, written by Peter Selinger 2001-2017
</metadata>
<g transform="translate(0.000000,500.000000) scale(0.100000,-0.100000)"
fill="#000000" stroke="none">
<path d="M2275 4064 c-62 -45 -92 -76 -112 -111 l-22 -39 36 4 c38 5 53 -7 53
-44 0 -12 6 -24 14 -27 10 -4 15 11 20 64 3 38 15 92 25 119 20 53 18 58 -14
34z"/>
<path d="M3206 3913 c6 -4 11 -15 11 -23 0 -8 3 -22 7 -30 8 -19 -8 -45 -23
-36 -6 4 -11 16 -11 27 0 10 -2 19 -4 19 -7 0 -56 -46 -56 -53 0 -10 -226
-235 -249 -247 -17 -9 -20 -15 -12 -23 14 -14 14 -37 -1 -37 -24 0 -75 -50
-93 -92 -10 -23 -20 -44 -21 -46 -1 -2 -30 4 -65 13 -35 9 -75 14 -90 11 -14
-3 -31 0 -37 6 -7 7 -74 13 -179 16 l-167 5 -52 34 c-49 32 -84 36 -84 9 -1
-12 -45 -66 -55 -66 -11 0 -35 -28 -27 -32 11 -5 52 -66 52 -78 0 -5 -13 -24
-30 -41 -16 -18 -27 -36 -24 -41 4 -7 -9 -8 -35 -3 l-41 7 0 -646 c1 -355 3
-646 6 -646 3 0 19 7 36 16 25 13 49 15 105 11 l73 -5 0 624 0 624 59 30 c33
16 87 47 121 69 59 38 60 39 33 46 -16 3 -39 15 -53 26 l-25 21 110 -6 c61 -3
139 -12 175 -21 72 -18 180 -63 180 -76 0 -5 6 -9 14 -9 8 0 17 -6 19 -12 3
-8 6 -6 6 4 1 11 8 17 19 16 9 -1 31 0 48 0 l31 2 5 83 c7 101 31 162 52 128
9 -14 104 6 136 29 16 11 47 41 68 67 l40 46 12 -39 c7 -22 17 -44 22 -50 6
-8 -5 -14 -37 -18 -25 -4 -45 -11 -45 -17 0 -5 5 -9 11 -9 6 0 9 -6 6 -12 -2
-7 2 -26 10 -42 8 -15 16 -40 17 -54 3 -25 7 -27 60 -29 31 -1 56 3 56 8 0 16
38 10 44 -7 9 -24 -3 -36 -31 -31 -13 2 -21 2 -18 -1 3 -3 -5 -16 -17 -29 -12
-13 -16 -23 -10 -23 7 0 12 4 12 9 0 13 27 21 45 15 8 -4 15 -14 15 -25 0 -22
-35 -45 -45 -28 -5 7 -14 4 -26 -7 -19 -17 -21 -17 -47 13 -40 45 -101 81
-152 89 l-44 7 39 -54 c22 -30 43 -55 47 -57 5 -2 8 -9 8 -15 0 -7 16 -35 36
-62 20 -28 44 -66 55 -87 18 -34 20 -36 54 -28 20 5 39 10 41 13 2 2 -5 25
-16 51 -23 55 -20 65 15 58 14 -2 63 8 110 22 l85 27 -36 35 c-26 27 -39 33
-47 25 -37 -37 -89 12 -61 56 9 14 10 24 4 28 -18 11 -11 25 18 36 42 16 69
46 82 95 l13 44 -53 47 c-30 27 -68 59 -86 73 -18 14 -33 30 -33 35 0 6 15 21
34 35 18 14 50 50 70 80 l37 55 -44 6 c-24 4 -59 13 -78 21 -40 17 -121 33
-104 21z m164 -688 c0 -8 -4 -15 -10 -15 -5 0 -10 7 -10 15 0 8 5 15 10 15 6
0 10 -7 10 -15z m-1290 -905 c30 -30 27 -83 -6 -109 -15 -12 -37 -21 -50 -21
-19 0 -30 -12 -55 -61 -16 -34 -32 -59 -35 -57 -2 3 10 30 27 61 l30 57 -20
26 c-27 34 -27 72 1 101 27 29 80 31 108 3z"/>
<path d="M1746 3809 c-10 -52 -7 -65 14 -65 11 0 20 6 20 13 0 7 7 10 15 7 25
-10 17 20 -14 50 l-28 27 -7 -32z"/>
<path d="M2335 3641 c-8 -38 0 -66 32 -109 27 -35 45 -45 107 -56 l39 -8 -30
36 c-17 19 -34 43 -37 53 -3 10 -20 27 -37 37 -17 10 -39 32 -49 48 l-18 30
-7 -31z"/>
<path d="M3109 3014 c-35 -38 -77 -56 -115 -52 -19 2 -34 3 -34 2 0 -1 8 -37
18 -80 25 -114 24 -511 -1 -637 -66 -327 -232 -475 -564 -503 -171 -14 -248
16 -260 104 -3 23 -9 42 -14 42 -4 0 -25 -21 -46 -46 -21 -25 -58 -69 -83 -96
l-45 -50 290 5 c334 5 393 15 550 92 233 113 376 312 426 595 18 105 13 330
-10 437 -22 100 -60 205 -77 210 -5 2 -21 -8 -35 -23z"/>
<path d="M1769 2178 c-11 -49 -11 -52 12 -71 21 -17 24 -17 35 -3 13 19 40 21
47 4 3 -8 6 -5 6 5 1 28 -24 70 -57 94 l-30 22 -13 -51z"/>
<path d="M2005 1872 c-4 -4 -28 -12 -53 -18 -26 -6 -56 -15 -66 -19 -15 -7
-17 -5 -11 5 5 8 -5 5 -21 -7 -35 -24 -63 -34 -104 -35 l-31 -1 21 -22 c57
-60 186 -52 246 17 40 45 55 76 40 81 -8 3 -17 3 -21 -1z"/>
<path d="M3728 1833 c12 -2 32 -2 45 0 12 2 2 4 -23 4 -25 0 -35 -2 -22 -4z"/>
<path d="M3888 1833 c7 -3 16 -2 19 1 4 3 -2 6 -13 5 -11 0 -14 -3 -6 -6z"/>
<path d="M3690 1808 c0 -12 3 -17 8 -12 4 5 11 12 15 15 5 3 2 9 -7 12 -12 5
-16 0 -16 -15z"/>
<path d="M3928 1823 c7 -3 16 -2 19 1 4 3 -2 6 -13 5 -11 0 -14 -3 -6 -6z"/>
<path d="M3996 1797 c3 -10 9 -15 12 -12 3 3 0 11 -7 18 -10 9 -11 8 -5 -6z"/>
<path d="M3805 1780 c19 -8 73 -14 64 -6 -2 2 -22 6 -44 9 -28 5 -34 4 -20 -3z"/>
<path d="M3898 1783 c6 -2 18 -2 25 0 6 3 1 5 -13 5 -14 0 -19 -2 -12 -5z"/>
<path d="M3743 1774 c-8 -4 -9 -14 -1 -37 20 -65 27 -74 59 -69 27 4 29 7 29
47 0 39 -3 44 -31 54 -34 12 -38 12 -56 5z"/>
<path d="M3985 1760 c-3 -5 -1 -10 4 -10 6 0 11 5 11 10 0 6 -2 10 -4 10 -3 0
-8 -4 -11 -10z"/>
<path d="M3840 1710 c0 -49 1 -50 30 -50 34 0 80 -19 80 -33 0 -5 -6 -4 -14 2
-17 14 -99 20 -146 11 -29 -6 -25 -8 27 -9 34 0 64 -5 67 -9 8 -13 -118 -1
-129 11 -16 19 -38 20 -32 3 4 -9 2 -18 -3 -21 -16 -10 -12 -42 6 -49 8 -3 13
-10 9 -16 -7 -12 33 -53 45 -45 4 3 11 -1 13 -7 3 -8 6 -6 6 5 1 16 21 22 64
19 9 -1 17 3 17 8 0 5 7 6 17 3 10 -4 14 -2 10 4 -4 6 -3 22 2 35 7 17 10 18
10 6 1 -10 5 -18 10 -18 5 0 17 -3 27 -7 11 -4 15 -2 11 4 -4 6 8 10 31 10 20
1 55 5 77 12 l40 10 0 63 c0 57 -2 63 -22 66 -11 2 -47 -11 -79 -27 -31 -17
-66 -30 -78 -30 -13 1 -15 3 -6 5 11 3 14 16 12 49 l-4 45 -49 0 -49 0 0 -50z
m270 -4 c0 -2 -13 -6 -29 -8 -17 -2 -28 -1 -25 4 5 8 54 12 54 4z m-14 -41
c-11 -8 -25 -15 -30 -15 -6 1 0 7 14 15 32 19 40 18 16 0z m-349 -67 c-3 -8
-6 -5 -6 6 -1 11 2 17 5 13 3 -3 4 -12 1 -19z m210 -10 c-3 -8 -6 -5 -6 6 -1
11 2 17 5 13 3 -3 4 -12 1 -19z"/>
<path d="M1720 1725 c0 -24 3 -25 61 -25 l62 0 -47 25 c-26 14 -54 25 -62 25
-8 0 -14 -10 -14 -25z"/>
<path d="M3971 1694 c0 -11 3 -14 6 -6 3 7 2 16 -1 19 -3 4 -6 -2 -5 -13z"/>
<path d="M3685 1630 c3 -5 11 -10 16 -10 6 0 7 5 4 10 -3 6 -11 10 -16 10 -6
0 -7 -4 -4 -10z"/>
<path d="M3655 1620 c3 -5 11 -10 16 -10 6 0 7 5 4 10 -3 6 -11 10 -16 10 -6
0 -7 -4 -4 -10z"/>
<path d="M3623 1605 c0 -9 4 -14 9 -13 5 2 10 8 10 13 0 5 -5 11 -10 13 -5 1
-9 -4 -9 -13z"/>
<path d="M4124 1405 c0 -99 2 -138 3 -87 2 51 2 132 0 180 -1 48 -3 6 -3 -93z"/>
<path d="M3600 1550 c8 -5 20 -10 25 -10 6 0 3 5 -5 10 -8 5 -19 10 -25 10 -5
0 -3 -5 5 -10z"/>
<path d="M4073 1549 c9 -5 17 -18 18 -27 0 -11 2 -12 6 -4 6 15 -14 42 -31 42
-6 0 -3 -5 7 -11z"/>
<path d="M3710 1531 c0 -9 30 -24 36 -18 2 1 -6 8 -16 15 -11 7 -20 8 -20 3z"/>
<path d="M3593 1490 c0 -25 2 -35 4 -22 2 12 2 32 0 45 -2 12 -4 2 -4 -23z"/>
<path d="M3660 1519 c0 -5 5 -7 10 -4 6 3 10 8 10 11 0 2 -4 4 -10 4 -5 0 -10
-5 -10 -11z"/>
<path d="M3848 1493 c7 -3 16 -2 19 1 4 3 -2 6 -13 5 -11 0 -14 -3 -6 -6z"/>
<path d="M3790 1255 c0 -120 3 -216 6 -213 7 7 5 420 -1 427 -3 2 -5 -94 -5
-214z"/>
<path d="M4088 1388 c4 -143 9 -157 10 -35 1 64 -1 117 -5 117 -5 0 -7 -37 -5
-82z"/>
<path d="M4038 1453 c6 -2 18 -2 25 0 6 3 1 5 -13 5 -14 0 -19 -2 -12 -5z"/>
<path d="M2740 1421 c0 -17 2 -31 4 -31 8 0 13 51 5 56 -5 3 -9 -9 -9 -25z"/>
<path d="M3998 1443 c7 -3 16 -2 19 1 4 3 -2 6 -13 5 -11 0 -14 -3 -6 -6z"/>
<path d="M1878 1428 c7 -7 12 -33 12 -58 0 -25 -5 -51 -12 -58 -9 -9 -3 -12
30 -12 56 0 97 37 87 78 -11 45 -34 62 -84 62 -35 0 -42 -3 -33 -12z m82 -17
c24 -46 6 -101 -32 -101 -15 0 -18 9 -18 60 0 53 2 60 20 60 10 0 24 -9 30
-19z"/>
<path d="M2135 1370 c0 -68 1 -70 25 -70 19 0 21 3 12 12 -7 7 -12 33 -12 58
0 25 5 51 12 58 9 9 7 12 -12 12 -24 0 -25 -2 -25 -70z"/>
<path d="M2321 1419 c6 -12 19 -45 29 -73 l18 -51 16 37 c9 21 16 43 16 50 -1
7 -7 0 -14 -17 l-13 -30 -13 40 c-7 22 -17 46 -23 53 -16 20 -29 14 -16 -9z"/>
<path d="M2397 1419 c4 -14 8 -17 13 -9 4 7 14 16 21 21 10 6 6 9 -13 9 -22 0
-25 -4 -21 -21z"/>
<path d="M2558 1433 c7 -3 12 -26 12 -63 0 -37 -5 -60 -12 -63 -7 -3 3 -6 22
-6 23 0 30 2 22 8 -10 6 -13 26 -10 70 3 60 2 61 -22 60 -14 0 -19 -3 -12 -6z"/>
<path d="M2897 1433 c-18 -17 -6 -53 24 -68 19 -10 29 -22 27 -33 -4 -20 -42
-23 -44 -4 -3 24 -4 26 -16 14 -15 -15 7 -42 36 -42 51 0 62 52 16 78 -34 20
-41 52 -10 52 11 0 20 -7 20 -16 0 -8 5 -12 10 -9 17 10 -8 35 -35 35 -12 0
-25 -3 -28 -7z"/>
<path d="M3948 1433 c7 -3 16 -2 19 1 4 3 -2 6 -13 5 -11 0 -14 -3 -6 -6z"/>
<path d="M3908 1423 c7 -3 16 -2 19 1 4 3 -2 6 -13 5 -11 0 -14 -3 -6 -6z"/>
<path d="M3847 1413 c-4 -3 -7 -62 -7 -130 0 -111 2 -123 18 -122 10 0 12 3 5
6 -10 3 -13 38 -13 123 0 104 2 119 18 123 14 4 14 5 1 6 -9 0 -19 -2 -22 -6z"/>
<path d="M3630 1344 c0 -11 -5 -25 -12 -32 -9 -9 -9 -12 0 -12 13 0 28 47 18
57 -3 4 -6 -3 -6 -13z"/>
<path d="M3611 1274 c0 -11 3 -14 6 -6 3 7 2 16 -1 19 -3 4 -6 -2 -5 -13z"/>
<path d="M3771 1264 c0 -11 3 -14 6 -6 3 7 2 16 -1 19 -3 4 -6 -2 -5 -13z"/>
<path d="M3611 1214 c0 -11 3 -14 6 -6 3 7 2 16 -1 19 -3 4 -6 -2 -5 -13z"/>
<path d="M4048 1213 c7 -3 16 -2 19 1 4 3 -2 6 -13 5 -11 0 -14 -3 -6 -6z"/>
<path d="M3773 1165 c0 -27 2 -38 4 -22 2 15 2 37 0 50 -2 12 -4 0 -4 -28z"/>
<path d="M4008 1203 c7 -3 16 -2 19 1 4 3 -2 6 -13 5 -11 0 -14 -3 -6 -6z"/>
<path d="M3968 1193 c7 -3 16 -2 19 1 4 3 -2 6 -13 5 -11 0 -14 -3 -6 -6z"/>
<path d="M3928 1183 c7 -3 16 -2 19 1 4 3 -2 6 -13 5 -11 0 -14 -3 -6 -6z"/>
<path d="M3888 1173 c7 -3 16 -2 19 1 4 3 -2 6 -13 5 -11 0 -14 -3 -6 -6z"/>
<path d="M1511 1103 c1 -32 4 -46 6 -31 2 15 12 29 21 31 15 4 15 5 0 6 -27 2
-23 39 5 44 19 4 18 4 -5 6 -28 1 -28 0 -27 -56z"/>
<path d="M1691 1103 c1 -32 4 -48 6 -35 5 24 22 29 42 10 10 -11 11 -10 6 5
-4 9 -16 17 -26 17 -25 0 -26 47 -1 53 13 4 11 5 -5 6 -22 1 -23 -3 -22 -56z"/>
<path d="M1907 1146 c-4 -10 -3 -15 3 -11 6 3 10 1 10 -6 0 -7 3 -10 6 -6 3 3
2 13 -4 22 -8 16 -9 16 -15 1z"/>
<path d="M2113 1153 c9 -2 25 -2 35 0 9 3 1 5 -18 5 -19 0 -27 -2 -17 -5z"/>
<path d="M2300 1156 c0 -2 11 -6 25 -8 13 -3 22 -1 19 3 -5 9 -44 13 -44 5z"/>
<path d="M2515 1150 c-3 -5 -1 -10 4 -10 6 0 11 5 11 10 0 6 -2 10 -4 10 -3 0
-8 -4 -11 -10z"/>
<path d="M2773 1105 c0 -33 2 -45 4 -27 2 18 2 45 0 60 -2 15 -4 0 -4 -33z"/>
<path d="M2953 1153 c9 -2 23 -2 30 0 6 3 -1 5 -18 5 -16 0 -22 -2 -12 -5z"/>
<path d="M3120 1105 c0 -51 2 -55 23 -54 16 1 18 2 5 6 -14 3 -18 15 -18 48 0
33 4 45 18 48 13 4 11 5 -5 6 -21 1 -23 -3 -23 -54z"/>
<path d="M3297 1153 c-4 -3 -7 -11 -7 -17 0 -7 3 -7 8 0 4 7 16 14 27 17 19 5
19 5 -1 6 -11 0 -24 -2 -27 -6z"/>
<path d="M2690 1142 c0 -4 10 -13 23 -21 22 -14 22 -14 3 8 -20 22 -26 25 -26
13z"/>
<path d="M3661 1133 c12 -15 12 -16 -3 -10 -30 11 -20 -2 15 -18 22 -11 27
-12 15 -2 -14 11 -15 16 -5 27 9 10 9 11 0 6 -7 -4 -13 -2 -13 3 0 6 -5 11
-11 11 -8 0 -7 -6 2 -17z"/>
<path d="M4028 1143 c7 -3 16 -2 19 1 4 3 -2 6 -13 5 -11 0 -14 -3 -6 -6z"/>
<path d="M3701 1123 c-1 -17 16 -25 25 -12 4 7 3 9 -4 5 -5 -3 -13 0 -15 6 -4
9 -6 10 -6 1z"/>
<path d="M1888 1103 c-4 -15 1 -18 27 -18 21 0 31 4 28 12 -3 6 -11 9 -20 6
-8 -3 -18 0 -23 6 -5 9 -9 7 -12 -6z"/>
<path d="M3918 1113 c7 -3 16 -2 19 1 4 3 -2 6 -13 5 -11 0 -14 -3 -6 -6z"/>
<path d="M2520 1103 c-25 -5 -40 -19 -40 -38 1 -5 5 -2 11 8 5 9 21 17 34 17
14 0 25 5 25 10 0 6 -1 9 -2 9 -2 -1 -14 -4 -28 -6z"/>
<path d="M3878 1103 c7 -3 16 -2 19 1 4 3 -2 6 -13 5 -11 0 -14 -3 -6 -6z"/>
<path d="M2308 1093 c6 -2 18 -2 25 0 6 3 1 5 -13 5 -14 0 -19 -2 -12 -5z"/>
<path d="M3838 1093 c7 -3 16 -2 19 1 4 3 -2 6 -13 5 -11 0 -14 -3 -6 -6z"/>
<path d="M4028 1073 c7 -3 16 -2 19 1 4 3 -2 6 -13 5 -11 0 -14 -3 -6 -6z"/>
<path d="M2113 1053 c9 -2 25 -2 35 0 9 3 1 5 -18 5 -19 0 -27 -2 -17 -5z"/>
<path d="M2953 1053 c9 -2 23 -2 30 0 6 3 -1 5 -18 5 -16 0 -22 -2 -12 -5z"/>
<path d="M3298 1053 c6 -2 18 -2 25 0 6 3 1 5 -13 5 -14 0 -19 -2 -12 -5z"/>
<path d="M3798 1013 c7 -3 16 -2 19 1 4 3 -2 6 -13 5 -11 0 -14 -3 -6 -6z"/>
</g>
</svg>
